<?xml version="1.0" standalone="no"?>
<!DOCTYPE svg PUBLIC "-//W3C//DTD SVG 1.1//EN" "http://www.w3.org/Graphics/SVG/1.1/DTD/svg11.dtd" >
<svg xmlns="http://www.w3.org/2000/svg">
<metadata></metadata>
<defs>
<font id="digital_dream_fatregular" horiz-adv-x="800" >
<font-face units-per-em="1000" ascent="800" descent="-200" />
<missing-glyph horiz-adv-x="500" />
<glyph horiz-adv-x="1000" />
<glyph horiz-adv-x="1000" />
<glyph unicode="&#xd;" />
<glyph unicode=" " />
<glyph unicode="!" d="M365 286l-50 63v322l47 63l50 -62v-323zM364 -177q-32 0 -54 29q-19 26 -19 60q0 35 19.5 61t53.5 26q32 0 52 -27t20 -60t-20 -61t-52 -28z" />
<glyph unicode="&#x22;" d="M351 508l-57 55v115l53 55l58 -55v-115zM77 508l-56 55v115l54 55l56 -55v-115z" />
<glyph unicode="#" d="M80 -131l-59 64v320l45 50l-45 47v321l56 63l59 -62v-312h169v311l57 63l60 -62v-312h169v313l56 63l59 -62v-324l-45 -50l45 -47v-320l-56 -64l-59 64v311h-169v-311l-57 -64l-60 63v312h-169v-311z" />
<glyph unicode="$" d="M136 361h169v303h-169v-303zM422 -60h169v303h-169v-303zM316 -177h-190l-62 57l62 60h179v303h-179l-62 58l2 1l-45 48v323l56 63l1 -1l48 46h190l49 -45l46 45h190l62 -57l-62 -60h-179v-303h179l62 -58l-2 -2l45 -48v-322l-56 -65l-2 2l-47 -45h-190l-49 45z" />
<glyph unicode="%" d="M136 361h169v303h-169v-303zM422 -60h169v303h-169v-303zM162 -84h-49v127l137 200h-124l-62 58l2 1l-45 48v323l56 63l1 -1l48 46h190l62 -57l-3 -2l47 -48v-194l143 208h49v-128l-137 -199h124l62 -58l-2 -2l45 -48v-322l-56 -65l-2 2l-47 -45h-190l-62 57l2 2l-46 48 v194z" />
<glyph unicode="&#x26;" d="M136 361h168v303h-168v-303zM136 -60h168v303h-168v-303zM314 -177h-188l-62 57l2 2l-45 49v322l44 50l-44 47v323l56 63l1 -1l47 46h189l62 -57l-2 -2l46 -48v-324l-45 -50l45 -47v-174l129 188h63v-107l-151 -220h137l62 -57l-62 -60h-188l-49 45z" />
<glyph unicode="'" d="M365 508l-43 55v115l40 55l43 -55v-115z" />
<glyph unicode="(" d="M601 -177h-179l-58 57l1 2l-43 48v323l42 50l-42 47v323l53 63l2 -2l45 47h179l58 -57l-58 -60h-169v-314l-43 -50l43 -47v-313h169l58 -57z" />
<glyph unicode=")" d="M305 -177h-179l-58 57l58 60h169v313l43 50l-43 47v314h-169l-58 57l58 60h179l58 -57l-2 -2l44 -48v-324l-42 -50l42 -47v-322l-53 -64l-2 2z" />
<glyph unicode="*" d="M459 336h-63v107l165 241h48v-127zM268 336l-150 221v127h48l165 -241v-107h-63zM561 -80l-165 241v107h63l150 -222v-126h-48zM166 -80h-48v126l150 222h63v-107z" />
<glyph unicode="+" d="M365 -131l-59 63v312h-177l-62 57l61 59h178v311l56 63l59 -62v-312h177l62 -57l-61 -59h-178v-311z" />
<glyph unicode="," d="M418 -184q-23 -53 -54 -53t-54 49q-19 41 -19 79q0 32 20.5 54t52.5 22q31 0 51.5 -22.5t20.5 -53.5q0 -33 -18 -75z" />
<glyph unicode="-" d="M316 261h-187l-62 40l61 42h188l49 -32l46 32h187l62 -40l-61 -42h-188l-49 32z" />
<glyph unicode="." d="M364 -177q-30 0 -51.5 21.5t-21.5 51.5q0 31 21 51t52 20q30 0 51 -20.5t21 -50.5q0 -29 -21.5 -51t-50.5 -22z" />
<glyph unicode="/" d="M459 336h-63v107l165 241h48v-127zM166 -80h-48v126l150 222h63v-107z" />
<glyph unicode="0" d="M179 -60h137l49 -45l46 45h180v313l44 50l-44 47v176l-130 -189h-64v107l151 220h-137l-49 45l-46 -45h-180v-314l-44 -50l44 -47v-175l130 189h64v-107zM316 -177h-190l-62 57l2 2l-45 49v322l45 50l-45 47v323l56 63l1 -1l48 46h190l49 -45l46 45h190l62 -57l-1 -1 l44 -48v-325l-45 -50l45 -47v-322l-56 -65l-2 2l-47 -45h-190l-49 45z" />
<glyph unicode="1" d="M316 -177h-187l-62 57l61 60h178v313l45 50l-45 47v314h-177l-62 57l61 60h188l61 -57l-2 -2l46 -48v-324l-45 -50l45 -47v-313h177l62 -57l-61 -60h-188l-49 45z" />
<glyph unicode="2" d="M316 -177h-190l-62 57l2 2l-45 49v322l56 63l1 -1l48 46h190l49 -46l46 46h180v303h-180l-49 45l-46 -45h-190l-62 57l62 60h190l49 -45l46 45h190l62 -57l-1 -1l44 -48v-325l-56 -63l-2 2l-47 -46h-190l-49 46l-46 -46h-180v-303h180l49 -45l46 45h190l62 -57l-62 -60 h-190l-49 45z" />
<glyph unicode="3" d="M318 -177h-189l-62 57l62 60h188l49 -45l47 45h178v303h-178l-62 58l62 60h178v303h-178l-49 45l-46 -45h-189l-62 57l62 60h188l49 -45l47 45h188l62 -57l-1 -1l44 -48v-325l-44 -50l44 -47v-322l-56 -65l-2 2l-46 -45h-189l-49 45z" />
<glyph unicode="4" d="M316 244h-190l-62 57l2 1l-45 48v321l56 63l59 -62v-312h180l49 -45l46 45h180v313l56 63l59 -62v-324l-45 -50l45 -47v-320l-56 -64l-59 64v311h-180l-49 45z" />
<glyph unicode="5" d="M316 -177h-190l-62 57l62 60h190l49 -45l46 45h180v303h-180l-49 46l-46 -46h-190l-62 58l2 1l-45 48v323l56 63l1 -1l48 46h190l49 -45l46 45h190l62 -57l-62 -60h-190l-49 45l-46 -45h-180v-303h180l49 -46l46 46h190l62 -58l-2 -2l45 -48v-322l-56 -65l-2 2l-47 -45 h-190l-49 45z" />
<glyph unicode="6" d="M136 -60h180l49 -45l46 45h180v303h-180l-49 46l-46 -46h-180v-303zM316 -177h-190l-62 57l2 2l-45 49v322l45 50l-45 47v323l56 63l1 -1l48 46h190l49 -45l46 45h190l62 -57l-62 -60h-190l-49 45l-46 -45h-180v-303h180l49 -46l46 46h190l62 -58l-2 -2l45 -48v-322 l-56 -65l-2 2l-47 -45h-190l-49 45z" />
<glyph unicode="7" d="M316 664h-187l-62 57l61 60h188l49 -45l46 45h187l62 -57l-48 -47v-116l-152 -222h-63v107l149 218h-135l-49 45zM164 -80h-49v126l152 224h63v-108z" />
<glyph unicode="8" d="M136 361h180l49 -46l46 46h180v303h-180l-49 45l-46 -45h-180v-303zM136 -60h180l49 -45l46 45h180v303h-180l-49 46l-46 -46h-180v-303zM316 -177h-190l-62 57l2 2l-45 49v322l45 50l-45 47v323l56 63l1 -1l48 46h190l49 -45l46 45h190l62 -57l-1 -1l44 -48v-325 l-45 -50l45 -47v-322l-56 -65l-2 2l-47 -45h-190l-49 45z" />
<glyph unicode="9" d="M136 361h180l49 -46l46 46h180v303h-180l-49 45l-46 -45h-180v-303zM316 -177h-190l-62 57l62 60h190l49 -45l46 45h180v303h-180l-49 46l-46 -46h-190l-62 58l2 1l-45 48v323l56 63l1 -1l48 46h190l49 -45l46 45h190l62 -57l-1 -1l44 -48v-325l-45 -50l45 -47v-322 l-56 -65l-2 2l-47 -45h-190l-49 45z" />
<glyph unicode=":" d="M364 340q-32 0 -52.5 25t-20.5 58t20.5 59t52.5 26t52 -26t20 -59t-20 -58t-52 -25zM364 95q-32 0 -53 28q-20 25 -20 58q0 34 20 58.5t53 24.5q31 0 51.5 -25.5t20.5 -57.5t-20.5 -59t-51.5 -27z" />
<glyph unicode=";" d="M364 338q-32 0 -52.5 25.5t-20.5 58.5t20.5 59.5t52.5 26.5t52 -26.5t20 -59.5t-19 -57q-21 -27 -53 -27zM418 95q-23 -60 -54 -60t-54 55q-19 46 -19 87q0 34 20 59t53 25q32 0 52 -26t20 -58q0 -35 -18 -82z" />
<glyph unicode="&#x3c;" d="M475 336h-56v107l147 241h43v-127zM566 -80l-147 241v107h56l134 -222v-126h-43z" />
<glyph unicode="=" d="M316 336h-187l-62 52l61 55h188l49 -41l46 41h187l62 -52l-61 -55h-188l-49 41zM316 161h-187l-62 52l61 55h188l49 -41l46 41h187l62 -52l-61 -55h-188l-49 41z" />
<glyph unicode="&#x3e;" d="M252 336l-134 221v127h43l147 -241v-107h-56zM161 -80h-43v126l134 222h56v-107z" />
<glyph unicode="?" d="M367 -131l-60 64v321l56 63l2 -2l48 47h178v302h-178l-49 45l-46 -45h-189l-62 57l62 60h188l49 -45l47 45h188l62 -57l-1 -1l44 -47v-325l-56 -63l-2 2l-46 -45h-179v-312z" />
<glyph unicode="@" d="M422 664v-184l126 184h-126zM477 361h114v165zM179 664l126 -184v184h-126zM477 243l114 -165v165h-114zM136 361h114l-114 165v-165zM422 -60h126l-126 184v-184zM136 243v-165l114 165h-114zM179 -60h126v184zM316 -177h-190l-62 57l2 2l-45 49v322l45 50l-45 47v323 l56 63l1 -1l48 46h190l49 -45l46 45h190l62 -57l-1 -1l44 -48v-325l-45 -50l45 -47v-322l-56 -65l-2 2l-47 -45h-190l-49 45z" />
<glyph unicode="A" d="M80 -131l-59 63v320l56 63l1 -2l35 33v96l167 242h50v-127l-138 -198h124l49 -45l46 45h124l-138 198v127h50l167 -242v-95l49 -45l-2 -2l45 -48v-319l-56 -64l-59 63v311h-180l-49 45l-46 -45h-180v-310z" />
<glyph unicode="B" d="M136 361h180l49 -46l46 46h180v303h-180l-49 45l-46 -45h-180v-303zM136 -60h180l49 -45l46 45h180v303h-180l-49 46l-46 -46h-180v-303zM316 -177h-190l-62 57l2 2l-45 49v322l45 50l-45 47v323l56 63l1 -1l48 46h190l49 -45l46 45h190l62 -57l-1 -1l44 -48v-325 l-45 -50l45 -47v-322l-56 -65l-2 2l-47 -45h-190l-49 45z" />
<glyph unicode="C" d="M314 -177h-188l-62 57l2 2l-45 49v322l44 50l-44 47v323l56 63l1 -1l47 46h189l49 -45l46 45h189l62 -57l-62 -60h-188l-49 45l-47 -45h-178v-314l-45 -50l45 -47v-313h178l49 -45l46 45h189l62 -57l-62 -60h-188l-49 45z" />
<glyph unicode="D" d="M547 337l-153 223v128h49l166 -244v-107h-62zM443 -84h-49v127l153 224h62v-107zM313 -177h-188l-61 57l1 2l-44 49v322l44 50l-44 47v323l56 63l1 -1l47 46h188l61 -57l-61 -60h-178v-314l-44 -50l44 -47v-313h178l61 -57z" />
<glyph unicode="E" d="M314 -177h-188l-62 57l2 2l-45 49v322l44 50l-44 47v323l56 63l1 -1l47 46h189l49 -45l46 45h189l62 -57l-62 -60h-188l-49 45l-47 -45h-178v-303h178l49 -46l46 46h189l62 -58l-62 -60h-188l-49 46l-47 -46h-178v-303h178l49 -45l46 45h189l62 -57l-62 -60h-188l-49 45z " />
<glyph unicode="F" d="M80 -131l-59 64v321l44 50l-44 47v322l56 63l1 -1l47 46h189l49 -45l46 45h189l62 -57l-62 -60h-188l-49 45l-47 -45h-178v-302h178l49 -46l46 46h189l62 -58l-62 -59h-188l-49 45l-47 -45h-178v-312z" />
<glyph unicode="G" d="M316 -177h-190l-62 57l2 2l-45 49v322l45 50l-45 47v323l56 63l1 -1l48 46h190l49 -45l46 45h190l62 -57l-62 -60h-190l-49 45l-46 -45h-180v-314l-44 -50l44 -47v-313h180l49 -45l46 45h180v303h-180l-62 58l62 60h190l62 -58l-2 -2l45 -48v-322l-56 -65l-2 2l-47 -45 h-190l-49 45z" />
<glyph unicode="H" d="M80 -131l-59 64v320l45 50l-45 47v321l56 63l59 -62v-312h180l49 -45l46 45h180v313l56 63l59 -62v-324l-45 -50l45 -47v-320l-56 -64l-59 64v311h-180l-49 45l-46 -45h-180v-311z" />
<glyph unicode="I" d="M316 -177h-187l-62 57l61 60h178v313l45 50l-45 47v314h-177l-62 57l61 60h188l49 -45l46 45h187l62 -57l-61 -60h-178v-314l-45 -50l45 -47v-313h177l62 -57l-61 -60h-188l-49 45z" />
<glyph unicode="J" d="M316 -177h-190l-62 57l2 2l-45 49v322l56 63l59 -63v-313h180l49 -45l46 45h180v313l44 50l-44 47v314h-180l-62 57l62 60h190l62 -57l-1 -1l44 -48v-325l-45 -50l45 -47v-322l-56 -65l-2 2l-47 -45h-190l-49 45z" />
<glyph unicode="K" d="M457 336h-63v108l166 242h49v-127zM560 -82l-166 242v108h63l152 -224v-126h-49zM79 -131l-58 64v320l44 50l-44 47v321l56 63l58 -62v-312h178l61 -57l-61 -59h-178v-311z" />
<glyph unicode="L" d="M314 -177h-188l-62 57l2 2l-45 48v322l44 49l-44 48v322l56 63l59 -63v-322l-45 -50l45 -47v-312h178l49 -45l46 45h189l62 -57l-62 -60h-188l-49 45z" />
<glyph unicode="M" d="M650 -131l-59 64v320l44 50l-44 47v174l-130 -188h-64v108l168 242h37l45 50l59 -62v-324l-45 -50l45 -47v-320zM80 -131l-59 64v320l45 50l-45 47v321l56 63l46 -48h39l168 -242v-108h-64l-130 188v-174l-44 -50l44 -47v-320z" />
<glyph unicode="N" d="M565 -82l-168 242v108h64l130 -189v174l44 50l-44 47v323l56 63l59 -62v-324l-45 -50l45 -47v-320l-56 -64l-46 49h-39zM80 -131l-59 64v320l45 50l-45 47v321l56 63l46 -48h39l168 -242v-108h-64l-130 188v-174l-44 -50l44 -47v-320z" />
<glyph unicode="O" d="M136 -60h180l49 -45l46 45h180v313l44 50l-44 47v314h-180l-49 45l-46 -45h-180v-314l-44 -50l44 -47v-313zM316 -177h-190l-62 57l2 2l-45 49v322l45 50l-45 47v323l56 63l1 -1l48 46h190l49 -45l46 45h190l62 -57l-1 -1l44 -48v-325l-45 -50l45 -47v-322l-56 -65l-2 2 l-47 -45h-190l-49 45z" />
<glyph unicode="P" d="M136 362h180l49 -46l46 46h180v302h-180l-49 45l-46 -45h-180v-302zM80 -131l-59 64v321l45 50l-45 47v322l56 63l1 -1l48 46h190l49 -45l46 45h190l62 -57l-1 -1l44 -47v-325l-56 -63l-2 2l-47 -45h-190l-49 45l-46 -45h-180v-312z" />
<glyph unicode="Q" d="M136 -60h180l49 -45l46 45h137l-151 220v107h64l130 -189v175l44 50l-44 47v314h-180l-49 45l-46 -45h-180v-314l-44 -50l44 -47v-313zM316 -177h-190l-62 57l2 2l-45 49v322l45 50l-45 47v323l56 63l1 -1l48 46h190l49 -45l46 45h190l62 -57l-1 -1l44 -48v-325l-45 -50 l45 -47v-322l-56 -65l-2 2l-47 -45h-190l-49 45z" />
<glyph unicode="R" d="M136 362h180l49 -46l46 46h180v302h-180l-49 45l-46 -45h-180v-302zM80 -131l-59 64v321l45 50l-45 47v322l56 63l1 -1l48 46h190l49 -45l46 45h190l62 -57l-1 -1l44 -47v-325l-56 -63l-2 2l-47 -45h-124l137 -200v-127h-49l-168 243v97l-35 32l-46 -45h-180v-312z" />
<glyph unicode="S" d="M316 -177h-190l-62 57l62 60h190l49 -45l46 45h180v303h-180l-49 46l-46 -46h-190l-62 58l2 1l-45 48v323l56 63l1 -1l48 46h190l49 -45l46 45h190l62 -57l-62 -60h-190l-49 45l-46 -45h-180v-303h180l49 -46l46 46h190l62 -58l-2 -2l45 -48v-322l-56 -65l-2 2l-47 -45 h-190l-49 45z" />
<glyph unicode="T" d="M365 -131l-59 64v321l45 50l-45 47v313h-177l-62 57l61 60h188l49 -45l46 45h187l62 -57l-61 -60h-178v-313l-45 -50l45 -47v-321z" />
<glyph unicode="U" d="M316 -177h-190l-62 57l2 2l-45 48v322l45 49l-45 48v322l56 63l59 -63v-322l-44 -50l44 -47v-312h180l49 -45l46 45h180v312l44 49l-44 48v324l56 63l59 -63v-324l-45 -50l45 -47v-321l-56 -65l-2 2l-47 -45h-190l-49 45z" />
<glyph unicode="V" d="M650 288l-59 63v322l56 63l59 -62v-323zM447 -80h-50v126l155 223h62v-107zM80 288l-59 63v320l56 63l59 -62v-321zM280 -80l-167 242v107h62l155 -223v-126h-50z" />
<glyph unicode="W" d="M565 -82l-168 242v108h64l130 -189v174l44 50l-44 47v323l56 63l59 -62v-324l-45 -50l45 -47v-320l-56 -64l-46 49h-39zM80 -131l-59 64v320l45 50l-45 47v321l56 63l59 -62v-322l-44 -50l44 -47v-174l130 189h64v-108l-168 -242h-39z" />
<glyph unicode="X" d="M459 336h-63v107l165 241h48v-127zM268 336l-150 221v127h48l165 -241v-107h-63zM561 -80l-165 241v107h63l150 -222v-126h-48zM166 -80h-48v126l150 222h63v-107z" />
<glyph unicode="Y" d="M459 335h-63v107l165 242h48v-127zM268 335l-150 222v127h48l165 -242v-107h-63zM365 -131l-58 63v320l55 62l58 -61v-320z" />
<glyph unicode="Z" d="M316 664h-187l-62 57l61 60h188l49 -45l46 45h187l62 -57l-48 -47v-117l-152 -223h-63v107l149 220h-135l-49 45zM316 -177h-187l-62 57l48 47v116l152 224h63v-107l-149 -220h135l49 -45l46 45h187l62 -57l-61 -60h-188l-49 45z" />
<glyph unicode="[" d="M601 -177h-179l-58 57l1 2l-43 48v323l42 50l-42 47v323l53 63l2 -2l45 47h179l58 -57l-58 -60h-169v-314l-43 -50l43 -47v-313h169l58 -57z" />
<glyph unicode="\" d="M268 336l-150 221v127h48l165 -241v-107h-63zM561 -80l-165 241v107h63l150 -222v-126h-48z" />
<glyph unicode="]" d="M305 -177h-179l-58 57l58 60h169v313l43 50l-43 47v314h-169l-58 57l58 60h179l58 -57l-2 -2l44 -48v-324l-42 -50l42 -47v-322l-53 -64l-2 2z" />
<glyph unicode="^" d="M548 358l-152 207v119h49l164 -226v-100h-61zM179 358h-61v100l164 226h49v-119z" />
<glyph unicode="_" d="M316 -177h-187l-62 40l61 42h188l49 -32l46 32h187l62 -40l-61 -42h-188l-49 32z" />
<glyph unicode="`" d="M252 358l-134 207v119h43l147 -226v-100h-56z" />
<glyph unicode="a" d="M80 -131l-59 63v320l56 63l1 -2l35 33v96l167 242h50v-127l-138 -198h124l49 -45l46 45h124l-138 198v127h50l167 -242v-95l49 -45l-2 -2l45 -48v-319l-56 -64l-59 63v311h-180l-49 45l-46 -45h-180v-310z" />
<glyph unicode="b" d="M136 361h180l49 -46l46 46h180v303h-180l-49 45l-46 -45h-180v-303zM136 -60h180l49 -45l46 45h180v303h-180l-49 46l-46 -46h-180v-303zM316 -177h-190l-62 57l2 2l-45 49v322l45 50l-45 47v323l56 63l1 -1l48 46h190l49 -45l46 45h190l62 -57l-1 -1l44 -48v-325 l-45 -50l45 -47v-322l-56 -65l-2 2l-47 -45h-190l-49 45z" />
<glyph unicode="c" d="M314 -177h-188l-62 57l2 2l-45 49v322l44 50l-44 47v323l56 63l1 -1l47 46h189l49 -45l46 45h189l62 -57l-62 -60h-188l-49 45l-47 -45h-178v-314l-45 -50l45 -47v-313h178l49 -45l46 45h189l62 -57l-62 -60h-188l-49 45z" />
<glyph unicode="d" d="M547 337l-153 223v128h49l166 -244v-107h-62zM443 -84h-49v127l153 224h62v-107zM313 -177h-188l-61 57l1 2l-44 49v322l44 50l-44 47v323l56 63l1 -1l47 46h188l61 -57l-61 -60h-178v-314l-44 -50l44 -47v-313h178l61 -57z" />
<glyph unicode="e" d="M314 -177h-188l-62 57l2 2l-45 49v322l44 50l-44 47v323l56 63l1 -1l47 46h189l49 -45l46 45h189l62 -57l-62 -60h-188l-49 45l-47 -45h-178v-303h178l49 -46l46 46h189l62 -58l-62 -60h-188l-49 46l-47 -46h-178v-303h178l49 -45l46 45h189l62 -57l-62 -60h-188l-49 45z " />
<glyph unicode="f" d="M80 -131l-59 64v321l44 50l-44 47v322l56 63l1 -1l47 46h189l49 -45l46 45h189l62 -57l-62 -60h-188l-49 45l-47 -45h-178v-302h178l49 -46l46 46h189l62 -58l-62 -59h-188l-49 45l-47 -45h-178v-312z" />
<glyph unicode="g" d="M316 -177h-190l-62 57l2 2l-45 49v322l45 50l-45 47v323l56 63l1 -1l48 46h190l49 -45l46 45h190l62 -57l-62 -60h-190l-49 45l-46 -45h-180v-314l-44 -50l44 -47v-313h180l49 -45l46 45h180v303h-180l-62 58l62 60h190l62 -58l-2 -2l45 -48v-322l-56 -65l-2 2l-47 -45 h-190l-49 45z" />
<glyph unicode="h" d="M80 -131l-59 64v320l45 50l-45 47v321l56 63l59 -62v-312h180l49 -45l46 45h180v313l56 63l59 -62v-324l-45 -50l45 -47v-320l-56 -64l-59 64v311h-180l-49 45l-46 -45h-180v-311z" />
<glyph unicode="i" d="M316 -177h-187l-62 57l61 60h178v313l45 50l-45 47v314h-177l-62 57l61 60h188l49 -45l46 45h187l62 -57l-61 -60h-178v-314l-45 -50l45 -47v-313h177l62 -57l-61 -60h-188l-49 45z" />
<glyph unicode="j" d="M316 -177h-190l-62 57l2 2l-45 49v322l56 63l59 -63v-313h180l49 -45l46 45h180v313l44 50l-44 47v314h-180l-62 57l62 60h190l62 -57l-1 -1l44 -48v-325l-45 -50l45 -47v-322l-56 -65l-2 2l-47 -45h-190l-49 45z" />
<glyph unicode="k" d="M457 336h-63v108l166 242h49v-127zM560 -82l-166 242v108h63l152 -224v-126h-49zM79 -131l-58 64v320l44 50l-44 47v321l56 63l58 -62v-312h178l61 -57l-61 -59h-178v-311z" />
<glyph unicode="l" d="M314 -177h-188l-62 57l2 2l-45 48v322l44 49l-44 48v322l56 63l59 -63v-322l-45 -50l45 -47v-312h178l49 -45l46 45h189l62 -57l-62 -60h-188l-49 45z" />
<glyph unicode="m" d="M650 -131l-59 64v320l44 50l-44 47v174l-130 -188h-64v108l168 242h37l45 50l59 -62v-324l-45 -50l45 -47v-320zM80 -131l-59 64v320l45 50l-45 47v321l56 63l46 -48h39l168 -242v-108h-64l-130 188v-174l-44 -50l44 -47v-320z" />
<glyph unicode="n" d="M565 -82l-168 242v108h64l130 -189v174l44 50l-44 47v323l56 63l59 -62v-324l-45 -50l45 -47v-320l-56 -64l-46 49h-39zM80 -131l-59 64v320l45 50l-45 47v321l56 63l46 -48h39l168 -242v-108h-64l-130 188v-174l-44 -50l44 -47v-320z" />
<glyph unicode="o" d="M136 -60h180l49 -45l46 45h180v313l44 50l-44 47v314h-180l-49 45l-46 -45h-180v-314l-44 -50l44 -47v-313zM316 -177h-190l-62 57l2 2l-45 49v322l45 50l-45 47v323l56 63l1 -1l48 46h190l49 -45l46 45h190l62 -57l-1 -1l44 -48v-325l-45 -50l45 -47v-322l-56 -65l-2 2 l-47 -45h-190l-49 45z" />
<glyph unicode="p" d="M136 362h180l49 -46l46 46h180v302h-180l-49 45l-46 -45h-180v-302zM80 -131l-59 64v321l45 50l-45 47v322l56 63l1 -1l48 46h190l49 -45l46 45h190l62 -57l-1 -1l44 -47v-325l-56 -63l-2 2l-47 -45h-190l-49 45l-46 -45h-180v-312z" />
<glyph unicode="q" d="M136 -60h180l49 -45l46 45h137l-151 220v107h64l130 -189v175l44 50l-44 47v314h-180l-49 45l-46 -45h-180v-314l-44 -50l44 -47v-313zM316 -177h-190l-62 57l2 2l-45 49v322l45 50l-45 47v323l56 63l1 -1l48 46h190l49 -45l46 45h190l62 -57l-1 -1l44 -48v-325l-45 -50 l45 -47v-322l-56 -65l-2 2l-47 -45h-190l-49 45z" />
<glyph unicode="r" d="M136 362h180l49 -46l46 46h180v302h-180l-49 45l-46 -45h-180v-302zM80 -131l-59 64v321l45 50l-45 47v322l56 63l1 -1l48 46h190l49 -45l46 45h190l62 -57l-1 -1l44 -47v-325l-56 -63l-2 2l-47 -45h-124l137 -200v-127h-49l-168 243v97l-35 32l-46 -45h-180v-312z" />
<glyph unicode="s" d="M316 -177h-190l-62 57l62 60h190l49 -45l46 45h180v303h-180l-49 46l-46 -46h-190l-62 58l2 1l-45 48v323l56 63l1 -1l48 46h190l49 -45l46 45h190l62 -57l-62 -60h-190l-49 45l-46 -45h-180v-303h180l49 -46l46 46h190l62 -58l-2 -2l45 -48v-322l-56 -65l-2 2l-47 -45 h-190l-49 45z" />
<glyph unicode="t" d="M365 -131l-59 64v321l45 50l-45 47v313h-177l-62 57l61 60h188l49 -45l46 45h187l62 -57l-61 -60h-178v-313l-45 -50l45 -47v-321z" />
<glyph unicode="u" d="M316 -177h-190l-62 57l2 2l-45 48v322l45 49l-45 48v322l56 63l59 -63v-322l-44 -50l44 -47v-312h180l49 -45l46 45h180v312l44 49l-44 48v324l56 63l59 -63v-324l-45 -50l45 -47v-321l-56 -65l-2 2l-47 -45h-190l-49 45z" />
<glyph unicode="v" d="M650 288l-59 63v322l56 63l59 -62v-323zM447 -80h-50v126l155 223h62v-107zM80 288l-59 63v320l56 63l59 -62v-321zM280 -80l-167 242v107h62l155 -223v-126h-50z" />
<glyph unicode="w" d="M565 -82l-168 242v108h64l130 -189v174l44 50l-44 47v323l56 63l59 -62v-324l-45 -50l45 -47v-320l-56 -64l-46 49h-39zM80 -131l-59 64v320l45 50l-45 47v321l56 63l59 -62v-322l-44 -50l44 -47v-174l130 189h64v-108l-168 -242h-39z" />
<glyph unicode="x" d="M459 336h-63v107l165 241h48v-127zM268 336l-150 221v127h48l165 -241v-107h-63zM561 -80l-165 241v107h63l150 -222v-126h-48zM166 -80h-48v126l150 222h63v-107z" />
<glyph unicode="y" d="M459 335h-63v107l165 242h48v-127zM268 335l-150 222v127h48l165 -242v-107h-63zM365 -131l-58 63v320l55 62l58 -61v-320z" />
<glyph unicode="z" d="M316 664h-187l-62 57l61 60h188l49 -45l46 45h187l62 -57l-48 -47v-117l-152 -223h-63v107l149 220h-135l-49 45zM316 -177h-187l-62 57l48 47v116l152 224h63v-107l-149 -220h135l49 -45l46 45h187l62 -57l-61 -60h-188l-49 45z" />
<glyph unicode="{" d="M599 -177h-188l-61 57l1 2l-45 48v313h-177l-62 58l61 60h178v312l56 63l1 -2l48 47h187l62 -57l-61 -60h-178v-314l-45 -50l45 -47v-313h177l62 -57z" />
<glyph unicode="|" d="M365 -131l-43 63v321l32 50l-32 47v321l40 63l43 -62v-322l-32 -50l32 -47v-320z" />
<glyph unicode="}" d="M316 -177h-187l-62 57l61 60h178v313l45 50l-45 47v314h-177l-62 57l61 60h188l61 -57l-2 -2l46 -48v-313h177l62 -58l-61 -60h-178v-312l-56 -64l-2 2z" />
<glyph unicode="&#xa0;" />
<glyph unicode="&#xad;" d="M316 261h-187l-62 40l61 42h188l49 -32l46 32h187l62 -40l-61 -42h-188l-49 32z" />
<glyph unicode="&#xc6;" d="M191 361h113v163zM80 -134l-59 65v322l56 63l1 -1l34 33v96l167 244h38l43 48l2 -2l47 47h189l62 -57l-62 -60h-178v-303h178l62 -58l-62 -60h-178v-303h178l62 -57l-62 -60h-188l-62 57l2 2l-46 48v313h-168v-312z" />
<glyph unicode="&#xd8;" d="M179 -60h137l49 -45l46 45h180v313l44 50l-44 47v176l-130 -189h-64v107l151 220h-137l-49 45l-46 -45h-180v-314l-44 -50l44 -47v-175l130 189h64v-107zM316 -177h-190l-62 57l2 2l-45 49v322l45 50l-45 47v323l56 63l1 -1l48 46h190l49 -45l46 45h190l62 -57l-1 -1 l44 -48v-325l-45 -50l45 -47v-322l-56 -65l-2 2l-47 -45h-190l-49 45z" />
<glyph unicode="&#xe6;" d="M191 361h113v163zM80 -134l-59 65v322l56 63l1 -1l34 33v96l167 244h38l43 48l2 -2l47 47h189l62 -57l-62 -60h-178v-303h178l62 -58l-62 -60h-178v-303h178l62 -57l-62 -60h-188l-62 57l2 2l-46 48v313h-168v-312z" />
<glyph unicode="&#xf8;" d="M179 -60h137l49 -45l46 45h180v313l44 50l-44 47v176l-130 -189h-64v107l151 220h-137l-49 45l-46 -45h-180v-314l-44 -50l44 -47v-175l130 189h64v-107zM316 -177h-190l-62 57l2 2l-45 49v322l45 50l-45 47v323l56 63l1 -1l48 46h190l49 -45l46 45h190l62 -57l-1 -1 l44 -48v-325l-45 -50l45 -47v-322l-56 -65l-2 2l-47 -45h-190l-49 45z" />
<glyph unicode="&#x2000;" horiz-adv-x="390" />
<glyph unicode="&#x2001;" horiz-adv-x="781" />
<glyph unicode="&#x2002;" horiz-adv-x="390" />
<glyph unicode="&#x2003;" horiz-adv-x="781" />
<glyph unicode="&#x2004;" horiz-adv-x="260" />
<glyph unicode="&#x2005;" horiz-adv-x="195" />
<glyph unicode="&#x2006;" horiz-adv-x="130" />
<glyph unicode="&#x2007;" horiz-adv-x="130" />
<glyph unicode="&#x2008;" horiz-adv-x="97" />
<glyph unicode="&#x2009;" horiz-adv-x="156" />
<glyph unicode="&#x200a;" horiz-adv-x="43" />
<glyph unicode="&#x2010;" d="M316 261h-187l-62 40l61 42h188l49 -32l46 32h187l62 -40l-61 -42h-188l-49 32z" />
<glyph unicode="&#x2011;" d="M316 261h-187l-62 40l61 42h188l49 -32l46 32h187l62 -40l-61 -42h-188l-49 32z" />
<glyph unicode="&#x2012;" d="M316 261h-187l-62 40l61 42h188l49 -32l46 32h187l62 -40l-61 -42h-188l-49 32z" />
<glyph unicode="&#x2013;" horiz-adv-x="707" d="M277 261h-158l-52 40l51 42h159l41 -32l39 32h158l52 -40l-51 -42h-159l-41 32z" />
<glyph unicode="&#x2014;" horiz-adv-x="1207" d="M487 261h-315l-105 40l103 42h317l83 -32l77 32h315l105 -40l-103 -42h-317l-83 32z" />
<glyph unicode="&#x202f;" horiz-adv-x="156" />
<glyph unicode="&#x205f;" horiz-adv-x="195" />
<glyph unicode="&#xe000;" horiz-adv-x="685" d="M0 685h685v-685h-685v685z" />
</font>
</defs>
</svg>
